<svg width="62" height="62" viewBox="0 0 62 62" fill="none" xmlns="http://www.w3.org/2000/svg">
<rect x="0.5" y="0.5" width="61" height="61" rx="7.5" fill="url(#paint0_linear_92_41819)"/>
<rect x="0.5" y="0.5" width="61" height="61" rx="7.5" stroke="url(#paint1_linear_92_41819)"/>
<path d="M26.9404 41.264C25.2604 41.264 23.9244 40.792 22.9324 39.848C21.9564 38.888 21.4684 37.6 21.4684 35.984V29.216C21.4684 27.616 21.9564 26.352 22.9324 25.424C23.9244 24.48 25.2604 24.008 26.9404 24.008C28.6204 24.008 29.9564 24.48 30.9484 25.424C31.9564 26.352 32.4604 27.616 32.4604 29.216V35.984C32.4604 37.6 31.9564 38.888 30.9484 39.848C29.9564 40.792 28.6204 41.264 26.9404 41.264ZM26.9404 38.84C27.7724 38.84 28.4364 38.6 28.9324 38.12C29.4284 37.624 29.6764 36.96 29.6764 36.128V29.12C29.6764 28.288 29.4284 27.632 28.9324 27.152C28.4364 26.656 27.7724 26.408 26.9404 26.408C26.1244 26.408 25.4684 26.656 24.9724 27.152C24.4924 27.632 24.2524 28.288 24.2524 29.12V36.128C24.2524 36.96 24.4924 37.624 24.9724 38.12C25.4684 38.6 26.1244 38.84 26.9404 38.84ZM37.2306 24.272C37.3586 24.224 37.4786 24.2 37.5906 24.2H39.8946C39.9746 24.2 40.0386 24.232 40.0866 24.296C40.1506 24.344 40.1826 24.408 40.1826 24.488V40.712C40.1826 40.792 40.1506 40.864 40.0866 40.928C40.0386 40.976 39.9746 41 39.8946 41H37.6866C37.6066 41 37.5346 40.976 37.4706 40.928C37.4226 40.864 37.3986 40.792 37.3986 40.712V27.08C37.3986 27.048 37.3826 27.024 37.3506 27.008C37.3186 26.976 37.2866 26.968 37.2546 26.984L34.8546 27.728C34.8226 27.744 34.7826 27.752 34.7346 27.752C34.6706 27.752 34.6146 27.728 34.5666 27.68C34.5346 27.632 34.5186 27.568 34.5186 27.488L34.4466 25.904C34.4466 25.744 34.5106 25.632 34.6386 25.568L37.2306 24.272Z" fill="#9EFF00"/>
<defs>
<linearGradient id="paint0_linear_92_41819" x1="31" y1="0" x2="31" y2="62" gradientUnits="userSpaceOnUse">
<stop stop-color="#242424"/>
<stop offset="1" stop-color="#242424" stop-opacity="0"/>
</linearGradient>
<linearGradient id="paint1_linear_92_41819" x1="31" y1="0" x2="31" y2="62" gradientUnits="userSpaceOnUse">
<stop stop-color="#2E2E2E"/>
<stop offset="1" stop-color="#2E2E2E" stop-opacity="0"/>
</linearGradient>
</defs>
</svg>
