<svg width="62" height="62" viewBox="0 0 62 62" fill="none" xmlns="http://www.w3.org/2000/svg">
<rect x="0.5" y="0.5" width="61" height="61" rx="7.5" fill="url(#paint0_linear_92_41829)"/>
<rect x="0.5" y="0.5" width="61" height="61" rx="7.5" stroke="url(#paint1_linear_92_41829)"/>
<path d="M24.3623 41.264C22.6823 41.264 21.3463 40.792 20.3543 39.848C19.3783 38.888 18.8903 37.6 18.8903 35.984V29.216C18.8903 27.616 19.3783 26.352 20.3543 25.424C21.3463 24.48 22.6823 24.008 24.3623 24.008C26.0423 24.008 27.3783 24.48 28.3703 25.424C29.3783 26.352 29.8823 27.616 29.8823 29.216V35.984C29.8823 37.6 29.3783 38.888 28.3703 39.848C27.3783 40.792 26.0423 41.264 24.3623 41.264ZM24.3623 38.84C25.1943 38.84 25.8583 38.6 26.3543 38.12C26.8503 37.624 27.0983 36.96 27.0983 36.128V29.12C27.0983 28.288 26.8503 27.632 26.3543 27.152C25.8583 26.656 25.1943 26.408 24.3623 26.408C23.5463 26.408 22.8903 26.656 22.3943 27.152C21.9143 27.632 21.6743 28.288 21.6743 29.12V36.128C21.6743 36.96 21.9143 37.624 22.3943 38.12C22.8903 38.6 23.5463 38.84 24.3623 38.84ZM36.1309 38.456C36.0989 38.488 36.0829 38.52 36.0829 38.552C36.0989 38.584 36.1309 38.6 36.1789 38.6H43.0189C43.0989 38.6 43.1629 38.632 43.2109 38.696C43.2749 38.744 43.3069 38.808 43.3069 38.888V40.712C43.3069 40.792 43.2749 40.864 43.2109 40.928C43.1629 40.976 43.0989 41 43.0189 41H32.6989C32.6189 41 32.5469 40.976 32.4829 40.928C32.4349 40.864 32.4109 40.792 32.4109 40.712V38.984C32.4109 38.84 32.4589 38.72 32.5549 38.624C33.7709 37.328 35.1789 35.736 36.7789 33.848L37.9069 32.528C39.3789 30.816 40.1149 29.52 40.1149 28.64C40.1149 27.984 39.8829 27.448 39.4189 27.032C38.9549 26.616 38.3549 26.408 37.6189 26.408C36.8829 26.408 36.2829 26.616 35.8189 27.032C35.3709 27.448 35.1469 28 35.1469 28.688V29.312C35.1469 29.392 35.1149 29.464 35.0509 29.528C35.0029 29.576 34.9389 29.6 34.8589 29.6H32.6269C32.5469 29.6 32.4749 29.576 32.4109 29.528C32.3629 29.464 32.3389 29.392 32.3389 29.312V28.28C32.3709 27.416 32.6189 26.664 33.0829 26.024C33.5469 25.384 34.1709 24.888 34.9549 24.536C35.7549 24.184 36.6429 24.008 37.6189 24.008C38.6909 24.008 39.6269 24.208 40.4269 24.608C41.2269 25.008 41.8429 25.56 42.2749 26.264C42.7069 26.952 42.9229 27.728 42.9229 28.592C42.9229 29.904 42.2269 31.416 40.8349 33.128C40.0669 34.088 38.8029 35.528 37.0429 37.448L36.1309 38.456Z" fill="white"/>
<defs>
<linearGradient id="paint0_linear_92_41829" x1="31" y1="0" x2="31" y2="62" gradientUnits="userSpaceOnUse">
<stop stop-color="#242424"/>
<stop offset="1" stop-color="#242424" stop-opacity="0"/>
</linearGradient>
<linearGradient id="paint1_linear_92_41829" x1="31" y1="0" x2="31" y2="62" gradientUnits="userSpaceOnUse">
<stop stop-color="#2E2E2E"/>
<stop offset="1" stop-color="#2E2E2E" stop-opacity="0"/>
</linearGradient>
</defs>
</svg>
