<svg width="62" height="62" viewBox="0 0 62 62" fill="none" xmlns="http://www.w3.org/2000/svg">
<rect x="0.5" y="0.5" width="61" height="61" rx="7.5" fill="url(#paint0_linear_92_41836)"/>
<rect x="0.5" y="0.5" width="61" height="61" rx="7.5" stroke="url(#paint1_linear_92_41836)"/>
<path d="M24.5967 41.264C22.9167 41.264 21.5807 40.792 20.5887 39.848C19.6127 38.888 19.1247 37.6 19.1247 35.984V29.216C19.1247 27.616 19.6127 26.352 20.5887 25.424C21.5807 24.48 22.9167 24.008 24.5967 24.008C26.2767 24.008 27.6127 24.48 28.6047 25.424C29.6127 26.352 30.1167 27.616 30.1167 29.216V35.984C30.1167 37.6 29.6127 38.888 28.6047 39.848C27.6127 40.792 26.2767 41.264 24.5967 41.264ZM24.5967 38.84C25.4287 38.84 26.0927 38.6 26.5887 38.12C27.0847 37.624 27.3327 36.96 27.3327 36.128V29.12C27.3327 28.288 27.0847 27.632 26.5887 27.152C26.0927 26.656 25.4287 26.408 24.5967 26.408C23.7807 26.408 23.1247 26.656 22.6287 27.152C22.1487 27.632 21.9087 28.288 21.9087 29.12V36.128C21.9087 36.96 22.1487 37.624 22.6287 38.12C23.1247 38.6 23.7807 38.84 24.5967 38.84ZM42.4853 33.008C42.8053 33.776 42.9653 34.656 42.9653 35.648C42.9653 36.544 42.8293 37.336 42.5573 38.024C42.1893 39.032 41.5813 39.816 40.7333 40.376C39.8853 40.92 38.8613 41.192 37.6613 41.192C36.4773 41.192 35.4453 40.896 34.5653 40.304C33.7013 39.696 33.0853 38.88 32.7173 37.856C32.5253 37.36 32.4133 36.712 32.3813 35.912C32.3813 35.72 32.4773 35.624 32.6693 35.624H34.9013C35.0933 35.624 35.1893 35.72 35.1893 35.912C35.2213 36.424 35.3013 36.832 35.4293 37.136C35.5733 37.648 35.8373 38.056 36.2213 38.36C36.6213 38.648 37.1013 38.792 37.6613 38.792C38.7173 38.792 39.4453 38.312 39.8453 37.352C40.0533 36.888 40.1573 36.288 40.1573 35.552C40.1573 34.736 40.0373 34.064 39.7973 33.536C39.3813 32.64 38.6613 32.192 37.6373 32.192C37.3653 32.192 36.9973 32.352 36.5333 32.672C36.4693 32.704 36.4133 32.72 36.3653 32.72C36.2853 32.72 36.2053 32.672 36.1253 32.576L35.0213 31.04C34.9733 30.96 34.9493 30.896 34.9493 30.848C34.9493 30.768 34.9813 30.696 35.0453 30.632L39.0053 26.744C39.0373 26.712 39.0453 26.68 39.0293 26.648C39.0133 26.616 38.9813 26.6 38.9333 26.6H32.9333C32.8533 26.6 32.7813 26.576 32.7173 26.528C32.6693 26.464 32.6453 26.392 32.6453 26.312V24.488C32.6453 24.408 32.6693 24.344 32.7173 24.296C32.7813 24.232 32.8533 24.2 32.9333 24.2H42.5093C42.5893 24.2 42.6533 24.232 42.7013 24.296C42.7653 24.344 42.7973 24.408 42.7973 24.488V26.576C42.7973 26.72 42.7493 26.84 42.6533 26.936L39.2213 30.392C39.1573 30.456 39.1893 30.504 39.3173 30.536C40.8053 30.744 41.8613 31.568 42.4853 33.008Z" fill="white"/>
<defs>
<linearGradient id="paint0_linear_92_41836" x1="31" y1="0" x2="31" y2="62" gradientUnits="userSpaceOnUse">
<stop stop-color="#242424"/>
<stop offset="1" stop-color="#242424" stop-opacity="0"/>
</linearGradient>
<linearGradient id="paint1_linear_92_41836" x1="31" y1="0" x2="31" y2="62" gradientUnits="userSpaceOnUse">
<stop stop-color="#2E2E2E"/>
<stop offset="1" stop-color="#2E2E2E" stop-opacity="0"/>
</linearGradient>
</defs>
</svg>
