<svg width="52" height="52" viewBox="0 0 52 52" fill="none" xmlns="http://www.w3.org/2000/svg">
<rect x="0.5" y="0.5" width="51" height="51" rx="5.5" fill="url(#paint0_linear_81_5310)"/>
<rect x="0.5" y="0.5" width="51" height="51" rx="5.5" stroke="url(#paint1_linear_81_5310)"/>
<path d="M20.1268 34.22C18.7268 34.22 17.6135 33.8267 16.7868 33.04C15.9735 32.24 15.5668 31.1667 15.5668 29.82V24.18C15.5668 22.8467 15.9735 21.7933 16.7868 21.02C17.6135 20.2333 18.7268 19.84 20.1268 19.84C21.5268 19.84 22.6401 20.2333 23.4668 21.02C24.3068 21.7933 24.7268 22.8467 24.7268 24.18V29.82C24.7268 31.1667 24.3068 32.24 23.4668 33.04C22.6401 33.8267 21.5268 34.22 20.1268 34.22ZM20.1268 32.2C20.8201 32.2 21.3735 32 21.7868 31.6C22.2001 31.1867 22.4068 30.6333 22.4068 29.94V24.1C22.4068 23.4067 22.2001 22.86 21.7868 22.46C21.3735 22.0467 20.8201 21.84 20.1268 21.84C19.4468 21.84 18.9001 22.0467 18.4868 22.46C18.0868 22.86 17.8868 23.4067 17.8868 24.1V29.94C17.8868 30.6333 18.0868 31.1867 18.4868 31.6C18.9001 32 19.4468 32.2 20.1268 32.2ZM36.274 28.24C36.3407 28.24 36.394 28.2667 36.434 28.32C36.4873 28.36 36.514 28.4133 36.514 28.48V30.08C36.514 30.1467 36.4873 30.2067 36.434 30.26C36.394 30.3 36.3407 30.32 36.274 30.32H35.434C35.3673 30.32 35.334 30.3533 35.334 30.42V33.76C35.334 33.8267 35.3073 33.8867 35.254 33.94C35.214 33.98 35.1607 34 35.094 34H33.254C33.1873 34 33.1273 33.98 33.074 33.94C33.034 33.8867 33.014 33.8267 33.014 33.76V30.42C33.014 30.3533 32.9807 30.32 32.914 30.32H26.834C26.7673 30.32 26.7073 30.3 26.654 30.26C26.614 30.2067 26.594 30.1467 26.594 30.08V28.8C26.594 28.72 26.614 28.62 26.654 28.5L30.434 20.18C30.4873 20.06 30.5807 20 30.714 20H32.674C32.7673 20 32.8273 20.0267 32.854 20.08C32.894 20.12 32.894 20.1867 32.854 20.28L29.294 28.12C29.2807 28.1467 29.2807 28.1733 29.294 28.2C29.3073 28.2267 29.3273 28.24 29.354 28.24H32.914C32.9807 28.24 33.014 28.2067 33.014 28.14V25.42C33.014 25.3533 33.034 25.3 33.074 25.26C33.1273 25.2067 33.1873 25.18 33.254 25.18H35.094C35.1607 25.18 35.214 25.2067 35.254 25.26C35.3073 25.3 35.334 25.3533 35.334 25.42V28.14C35.334 28.2067 35.3673 28.24 35.434 28.24H36.274Z" fill="white"/>
<defs>
<linearGradient id="paint0_linear_81_5310" x1="26" y1="0" x2="26" y2="52" gradientUnits="userSpaceOnUse">
<stop stop-color="#242424"/>
<stop offset="1" stop-color="#242424" stop-opacity="0"/>
</linearGradient>
<linearGradient id="paint1_linear_81_5310" x1="26" y1="0" x2="26" y2="52" gradientUnits="userSpaceOnUse">
<stop stop-color="#2E2E2E"/>
<stop offset="1" stop-color="#2E2E2E" stop-opacity="0"/>
</linearGradient>
</defs>
</svg>
