<svg width="60" height="60" viewBox="0 0 60 60" fill="none" xmlns="http://www.w3.org/2000/svg">
<g filter="url(#filter0_d_81_5411)">
<rect x="4" width="52" height="52" rx="6" fill="url(#paint0_linear_81_5411)" shape-rendering="crispEdges"/>
<rect x="4.5" y="0.5" width="51" height="51" rx="5.5" stroke="url(#paint1_linear_81_5411)" shape-rendering="crispEdges"/>
<g clip-path="url(#clip0_81_5411)">
<path d="M38.5195 16H21.4766C20.6602 16 20 16.6445 20 17.4414V34.5547C20 35.3516 20.6602 36 21.4766 36H38.5195C39.3359 36 40 35.3516 40 34.5586V17.4414C40 16.6445 39.3359 16 38.5195 16ZM25.9336 33.043H22.9648V23.4961H25.9336V33.043ZM24.4492 22.1953C23.4961 22.1953 22.7266 21.4258 22.7266 20.4766C22.7266 19.5273 23.4961 18.7578 24.4492 18.7578C25.3984 18.7578 26.168 19.5273 26.168 20.4766C26.168 21.4219 25.3984 22.1953 24.4492 22.1953ZM37.043 33.043H34.0781V28.4023C34.0781 27.2969 34.0586 25.8711 32.5352 25.8711C30.9922 25.8711 30.7578 27.0781 30.7578 28.3242V33.043H27.7969V23.4961H30.6406V24.8008H30.6797C31.0742 24.0508 32.043 23.2578 33.4844 23.2578C36.4883 23.2578 37.043 25.2344 37.043 27.8047V33.043Z" fill="#9EFF00"/>
</g>
</g>
<defs>
<filter id="filter0_d_81_5411" x="0" y="0" width="60" height="60" filterUnits="userSpaceOnUse" color-interpolation-filters="sRGB">
<feFlood flood-opacity="0" result="BackgroundImageFix"/>
<feColorMatrix in="SourceAlpha" type="matrix" values="0 0 0 0 0 0 0 0 0 0 0 0 0 0 0 0 0 0 127 0" result="hardAlpha"/>
<feOffset dy="4"/>
<feGaussianBlur stdDeviation="2"/>
<feComposite in2="hardAlpha" operator="out"/>
<feColorMatrix type="matrix" values="0 0 0 0 0 0 0 0 0 0 0 0 0 0 0 0 0 0 0.25 0"/>
<feBlend mode="normal" in2="BackgroundImageFix" result="effect1_dropShadow_81_5411"/>
<feBlend mode="normal" in="SourceGraphic" in2="effect1_dropShadow_81_5411" result="shape"/>
</filter>
<linearGradient id="paint0_linear_81_5411" x1="30" y1="0" x2="30" y2="52" gradientUnits="userSpaceOnUse">
<stop stop-color="#242424"/>
<stop offset="1" stop-color="#242424" stop-opacity="0"/>
</linearGradient>
<linearGradient id="paint1_linear_81_5411" x1="30" y1="0" x2="30" y2="52" gradientUnits="userSpaceOnUse">
<stop stop-color="#2E2E2E"/>
<stop offset="1" stop-color="#2E2E2E" stop-opacity="0"/>
</linearGradient>
<clipPath id="clip0_81_5411">
<rect width="20" height="20" fill="white" transform="translate(20 16)"/>
</clipPath>
</defs>
</svg>
