<svg width="117" height="36" viewBox="0 0 117 36" fill="none" xmlns="http://www.w3.org/2000/svg">
<path d="M17.7288 0.565613C8.06389 0.565613 0.228516 8.40077 0.228516 18.0657C0.228516 27.7311 8.06389 35.5656 17.7288 35.5656C27.3948 35.5656 35.2294 27.7311 35.2294 18.0657C35.2294 8.40139 27.3948 0.566449 17.7286 0.566449L17.7288 0.565613ZM25.7544 25.8058C25.4409 26.3199 24.768 26.4829 24.2539 26.1673C20.145 23.6575 14.9724 23.0891 8.88077 24.4809C8.29376 24.6146 7.70863 24.2468 7.57488 23.6596C7.44051 23.0724 7.80684 22.4872 8.39532 22.3535C15.0617 20.8305 20.7799 21.4862 25.3929 24.3053C25.9069 24.6209 26.0699 25.2917 25.7544 25.8058ZM27.8964 21.0407C27.5014 21.6827 26.6613 21.8854 26.0198 21.4904C21.3157 18.599 14.1451 17.7617 8.5811 19.4506C7.85951 19.6686 7.09737 19.2619 6.87836 18.5416C6.66103 17.82 7.0679 17.0593 7.78825 16.8399C14.1439 14.9114 22.045 15.8456 27.4471 19.1651C28.0886 19.5601 28.2914 20.4002 27.8964 21.0409V21.0407ZM28.0803 16.0788C22.44 12.7287 13.1343 12.4206 7.74917 14.055C6.88442 14.3173 5.96994 13.8291 5.70788 12.9644C5.44583 12.0992 5.93358 11.1854 6.79895 10.9225C12.9807 9.04588 23.2571 9.40845 29.7508 13.2634C30.5303 13.7251 30.7853 14.7296 30.3234 15.5064C29.8637 16.2842 28.8564 16.5406 28.0811 16.0788H28.0803ZM47.8411 16.7207C44.8193 16.0002 44.2822 15.4945 44.2822 14.4318C44.2822 13.4279 45.2268 12.7523 46.6332 12.7523C47.9958 12.7523 49.3458 13.2653 50.7626 14.3215C50.8044 14.3535 50.8587 14.3662 50.911 14.3578C50.9653 14.3499 51.0113 14.3209 51.0426 14.2772L52.518 12.1974C52.5786 12.1118 52.5619 11.9937 52.4804 11.9283C50.794 10.5756 48.8965 9.91793 46.6771 9.91793C43.415 9.91793 41.1351 11.8758 41.1351 14.6772C41.1351 17.6812 43.1015 18.7449 46.4995 19.566C49.3896 20.232 49.8786 20.7899 49.8786 21.7872C49.8786 22.8927 48.8923 23.5802 47.3041 23.5802C45.5403 23.5802 44.1004 22.9846 42.4913 21.5928C42.4516 21.5573 42.3973 21.5427 42.3471 21.5448C42.2928 21.5489 42.2447 21.574 42.2113 21.6137L40.5562 23.5823C40.4872 23.6659 40.4956 23.7871 40.575 23.8581C42.4474 25.5299 44.7504 26.4118 47.2372 26.4118C50.7522 26.4118 53.0237 24.4913 53.0237 21.5176C53.03 19.0084 51.5275 17.6187 47.8474 16.7235L47.8411 16.7207ZM60.9774 13.7407C59.454 13.7407 58.2043 14.3409 57.1719 15.5707V14.1865C57.1719 14.0772 57.0842 13.9882 56.9755 13.9882H54.2692C54.1606 13.9882 54.0728 14.0772 54.0728 14.1865V29.5674C54.0728 29.676 54.1606 29.7659 54.2692 29.7659H56.9755C57.0842 29.7659 57.1719 29.676 57.1719 29.5674V24.7128C58.2043 25.8685 59.454 26.4348 60.9774 26.4348C63.809 26.4348 66.6762 24.2552 66.6762 20.0884C66.6804 15.9208 63.8132 13.7405 60.9795 13.7405L60.9774 13.7407ZM63.529 20.0884C63.529 22.2093 62.2229 23.6909 60.3505 23.6909C58.501 23.6909 57.1051 22.1424 57.1051 20.0884C57.1051 18.0342 58.501 16.4861 60.3505 16.4861C62.1915 16.4859 63.529 18.0005 63.529 20.0882V20.0884ZM74.0217 13.7407C70.3751 13.7407 67.5184 16.5485 67.5184 20.1337C67.5184 23.6805 70.3563 26.4578 73.9778 26.4578C77.637 26.4578 80.5021 23.6596 80.5021 20.0884C80.5021 16.5293 77.6558 13.7412 74.0217 13.7412V13.7407ZM74.0217 23.7118C72.0824 23.7118 70.6196 22.1529 70.6196 20.0874C70.6196 18.0124 72.0323 16.5068 73.9778 16.5068C75.9297 16.5068 77.4009 18.0651 77.4009 20.1327C77.4009 22.2072 75.9798 23.7118 74.0217 23.7118ZM88.2886 13.9882H85.3106V10.9442C85.3106 10.8351 85.2229 10.7461 85.1142 10.7461H82.4079C82.2993 10.7461 82.2094 10.8351 82.2094 10.9442V13.9882H80.9096C80.8009 13.9882 80.7131 14.0772 80.7131 14.1865V16.5118C80.7131 16.6209 80.8009 16.7101 80.9096 16.7101H82.2094V22.7276C82.2094 25.158 83.4194 26.3909 85.808 26.3909C86.7776 26.3909 87.5822 26.1903 88.3408 25.7598C88.4035 25.7264 88.4411 25.6595 88.4411 25.5884V23.3733C88.4411 23.3064 88.4056 23.2416 88.3471 23.2061C88.2886 23.1685 88.2154 23.1664 88.1548 23.1978C87.6344 23.459 87.1308 23.5802 86.5666 23.5802C85.6993 23.5802 85.3106 23.1852 85.3106 22.3033V16.7111H88.2886C88.3972 16.7111 88.485 16.6221 88.485 16.5128V14.1877C88.4892 14.0784 88.4014 13.9894 88.2906 13.9894L88.2886 13.9882ZM98.6621 14.0001V13.6262C98.6621 12.5264 99.0843 12.0359 100.029 12.0359C100.593 12.0359 101.047 12.1479 101.554 12.3172C101.617 12.3368 101.682 12.327 101.732 12.2896C101.784 12.2522 101.814 12.1922 101.814 12.1287V9.84876C101.814 9.76162 101.759 9.68451 101.674 9.6588C101.139 9.49936 100.453 9.33573 99.4249 9.33573C96.9276 9.33573 95.6048 10.743 95.6048 13.4039V13.9765H94.305C94.1963 13.9765 94.1065 14.0655 94.1065 14.1746V16.5118C94.1065 16.6209 94.1963 16.7101 94.305 16.7101H95.6048V25.9897C95.6048 26.1004 95.6947 26.1882 95.8033 26.1882H98.5075C98.6183 26.1882 98.706 26.1004 98.706 25.9897V16.7107H101.233L105.103 25.9897C104.664 26.9635 104.231 27.1579 103.642 27.1579C103.166 27.1579 102.662 27.0158 102.15 26.7336C102.102 26.7086 102.043 26.7044 101.993 26.719C101.941 26.7378 101.897 26.7754 101.876 26.8256L100.959 28.838C100.915 28.9342 100.953 29.0449 101.044 29.0951C102.002 29.6133 102.865 29.8349 103.933 29.8349C105.93 29.8349 107.036 28.9028 108.008 26.3993L112.701 14.2709C112.726 14.2099 112.718 14.1409 112.68 14.0868C112.645 14.0331 112.584 14.0007 112.519 14.0007H109.702C109.617 14.0007 109.541 14.0544 109.514 14.1336L106.628 22.3744L103.469 14.1282C103.439 14.0515 103.366 14.0007 103.285 14.0007H98.6621V14.0001ZM92.6478 13.9882H89.9416C89.8329 13.9882 89.743 14.0772 89.743 14.1865V25.9897C89.743 26.1004 89.8329 26.1882 89.9416 26.1882H92.6478C92.7565 26.1882 92.8463 26.1004 92.8463 25.9897V14.1873C92.8463 14.078 92.7586 13.989 92.6478 13.989V13.9882ZM91.3103 8.6135C90.2383 8.6135 89.3689 9.48117 89.3689 10.553C89.3689 11.6255 90.2383 12.4942 91.3103 12.4942C92.3824 12.4942 93.2496 11.6255 93.2496 10.553C93.2496 9.48138 92.3803 8.6135 91.3103 8.6135ZM115.012 17.7834C113.943 17.7834 113.109 16.9235 113.109 15.8792C113.109 14.8349 113.953 13.9652 115.023 13.9652C116.093 13.9652 116.927 14.8249 116.927 15.8683C116.927 16.9126 116.082 17.7834 115.012 17.7834ZM115.023 14.1545C114.047 14.1545 113.309 14.9298 113.309 15.8792C113.309 16.8282 114.043 17.593 115.012 17.593C115.988 17.593 116.726 16.8183 116.726 15.8683C116.726 14.9194 115.993 14.1545 115.023 14.1545ZM115.445 16.0641L115.984 16.8181H115.529L115.044 16.1264H114.628V16.8181H114.248V14.8195H115.138C115.604 14.8195 115.909 15.0571 115.909 15.4571C115.911 15.7847 115.721 15.9849 115.447 16.0641H115.445ZM115.123 15.1624H114.628V15.7946H115.123C115.37 15.7946 115.518 15.6736 115.518 15.4782C115.518 15.2725 115.37 15.1624 115.123 15.1624Z" fill="#E6E6E6"/>
</svg>
